<svg width="64" height="64" viewBox="0 0 64 64" fill="none" xmlns="http://www.w3.org/2000/svg">
<path d="M18.6667 13.3333V5.33332C18.6667 4.62608 18.9477 3.9478 19.4478 3.4477C19.9479 2.94761 20.6261 2.66666 21.3334 2.66666H42.6667C43.374 2.66666 44.0522 2.94761 44.5523 3.4477C45.0524 3.9478 45.3334 4.62608 45.3334 5.33332V13.3333H56C56.7073 13.3333 57.3856 13.6143 57.8857 14.1144C58.3858 14.6145 58.6667 15.2927 58.6667 16V53.3333C58.6667 54.0406 58.3858 54.7188 57.8857 55.2189C57.3856 55.719 56.7073 56 56 56H8.00004C7.2928 56 6.61452 55.719 6.11442 55.2189C5.61433 54.7188 5.33337 54.0406 5.33337 53.3333V16C5.33337 15.2927 5.61433 14.6145 6.11442 14.1144C6.61452 13.6143 7.2928 13.3333 8.00004 13.3333H18.6667ZM42.6667 40H34.6667V42.6667H29.3334V40H21.3334V50.6667H42.6667V40ZM21.3334 18.6667V34.6667H29.3334V32H34.6667V34.6667H42.6667V18.6667H21.3334ZM16 34.6667V18.6667H10.6667V34.6667H16ZM48 34.6667H53.3334V18.6667H48V34.6667ZM16 40H10.6667V50.6667H16V40ZM48 40V50.6667H53.3334V40H48ZM24 7.99999V13.3333H40V7.99999H24Z" fill="#5A8CAE"/>
</svg>
