<svg width="64" height="64" viewBox="0 0 64 64" fill="none" xmlns="http://www.w3.org/2000/svg">
<path d="M50.6667 18.6667H64V24H50.6667V18.6667ZM45.3334 32H64V37.3333H45.3334V32ZM53.3334 45.3333H64V50.6667H53.3334V45.3333ZM5.33337 58.6667C5.33337 53.0087 7.58099 47.5825 11.5818 43.5817C15.5825 39.5809 21.0088 37.3333 26.6667 37.3333C32.3247 37.3333 37.7509 39.5809 41.7517 43.5817C45.7524 47.5825 48 53.0087 48 58.6667H42.6667C42.6667 54.4232 40.981 50.3535 37.9804 47.3529C34.9798 44.3524 30.9102 42.6667 26.6667 42.6667C22.4232 42.6667 18.3536 44.3524 15.353 47.3529C12.3524 50.3535 10.6667 54.4232 10.6667 58.6667H5.33337ZM26.6667 34.6667C17.8267 34.6667 10.6667 27.5067 10.6667 18.6667C10.6667 9.82666 17.8267 2.66666 26.6667 2.66666C35.5067 2.66666 42.6667 9.82666 42.6667 18.6667C42.6667 27.5067 35.5067 34.6667 26.6667 34.6667ZM26.6667 29.3333C32.56 29.3333 37.3334 24.56 37.3334 18.6667C37.3334 12.7733 32.56 7.99999 26.6667 7.99999C20.7734 7.99999 16 12.7733 16 18.6667C16 24.56 20.7734 29.3333 26.6667 29.3333Z" fill="#5A8CAE"/>
</svg>
