<svg width="64" height="64" viewBox="0 0 64 64" fill="none" xmlns="http://www.w3.org/2000/svg">
<rect y="64" width="64" height="64" rx="10" transform="rotate(-90 0 64)" fill="#5A8CAE"/>
<path d="M41.8598 40.0592L31.9939 30.2654L22.1279 40.0592C21.5649 40.6262 20.7984 40.9451 19.9988 40.9451C19.1992 40.9451 18.4328 40.6262 17.8697 40.0592C17.3229 39.5088 17.0112 38.7679 17.0001 37.9926C16.9954 37.1965 17.3084 36.4314 17.8697 35.8661L29.8647 23.8859C30.4278 23.3189 31.1943 23 31.9939 23C32.7934 23 33.5599 23.3189 34.123 23.8859L46.118 35.8661C46.8787 36.6259 47.1758 37.7332 46.8973 38.771C46.6189 39.8088 45.8073 40.6194 44.7682 40.8975C43.7291 41.1755 42.6204 40.8788 41.8598 40.1191L41.8598 40.0592Z" fill="white"/>
</svg>
