<svg width="64" height="64" viewBox="0 0 64 64" fill="none" xmlns="http://www.w3.org/2000/svg">
<path d="M45.3333 34.6667C47.443 34.6667 49.5053 35.2923 51.2594 36.4643C53.0135 37.6364 54.3807 39.3023 55.188 41.2514C55.9954 43.2005 56.2066 45.3452 55.795 47.4143C55.3834 49.4834 54.3675 51.384 52.8758 52.8758C51.384 54.3676 49.4834 55.3835 47.4143 55.795C45.3451 56.2066 43.2004 55.9954 41.2514 55.188C39.3023 54.3807 37.6364 53.0135 36.4643 51.2594C35.2922 49.5053 34.6666 47.443 34.6666 45.3333H29.3333C29.3323 47.9212 28.3905 50.4204 26.6835 52.3654C24.9764 54.3104 22.6205 55.5684 20.0547 55.9052C17.4888 56.2419 14.888 55.6344 12.7369 54.1958C10.5858 52.7571 9.03102 50.5856 8.36228 48.0856C7.69355 45.5857 7.95645 42.9278 9.10202 40.6074C10.2476 38.2869 12.1977 36.462 14.589 35.4727C16.9803 34.4834 19.6497 34.3972 22.0998 35.2301C24.5499 36.063 26.6137 37.7583 27.9066 40H36.0933C37.0293 38.3777 38.3761 37.0307 39.9982 36.0944C41.6203 35.1581 43.4604 34.6657 45.3333 34.6667ZM18.6666 40C17.2522 40 15.8956 40.5619 14.8954 41.5621C13.8952 42.5623 13.3333 43.9188 13.3333 45.3333C13.3333 46.7478 13.8952 48.1044 14.8954 49.1046C15.8956 50.1048 17.2522 50.6667 18.6666 50.6667C20.0811 50.6667 21.4377 50.1048 22.4379 49.1046C23.4381 48.1044 24 46.7478 24 45.3333C24 43.9188 23.4381 42.5623 22.4379 41.5621C21.4377 40.5619 20.0811 40 18.6666 40ZM45.3333 40C43.9188 40 42.5623 40.5619 41.5621 41.5621C40.5619 42.5623 40 43.9188 40 45.3333C40 46.7478 40.5619 48.1044 41.5621 49.1046C42.5623 50.1048 43.9188 50.6667 45.3333 50.6667C46.7478 50.6667 48.1044 50.1048 49.1045 49.1046C50.1047 48.1044 50.6666 46.7478 50.6666 45.3333C50.6666 43.9188 50.1047 42.5623 49.1045 41.5621C48.1044 40.5619 46.7478 40 45.3333 40ZM42.6666 8C45.4956 8 48.2087 9.12381 50.2091 11.1242C52.2095 13.1246 53.3333 15.8377 53.3333 18.6667V26.6667H58.6666V32H5.33331V26.6667H10.6666V18.6667C10.6666 15.8377 11.7905 13.1246 13.7908 11.1242C15.7912 9.12381 18.5043 8 21.3333 8H42.6666ZM42.6666 13.3333H21.3333C18.5226 13.3333 16 15.8667 16 18.6667V26.6667H48V18.6667C48 15.856 45.4666 13.3333 42.6666 13.3333Z" fill="#5A8CAE"/>
</svg>
