<svg width="64" height="64" viewBox="0 0 64 64" fill="none" xmlns="http://www.w3.org/2000/svg">
<path d="M31.9999 29.3333C35.5361 29.3333 38.9275 30.7381 41.428 33.2386C43.9285 35.7391 45.3333 39.1305 45.3333 42.6667V58.6667H39.9999V42.6667C40 40.6261 39.2204 38.6626 37.8205 37.178C36.4206 35.6933 34.5063 34.7997 32.4693 34.68L31.9999 34.6667C29.9594 34.6666 27.9959 35.4462 26.5112 36.8461C25.0266 38.246 24.133 40.1603 24.0133 42.1973L23.9999 42.6667V58.6667H18.6666V42.6667C18.6666 39.1305 20.0713 35.7391 22.5718 33.2386C25.0723 30.7381 28.4637 29.3333 31.9999 29.3333ZM14.6666 37.3333C15.4106 37.3333 16.1333 37.4213 16.8266 37.584C16.3706 38.9414 16.1006 40.3542 16.0239 41.784L15.9999 42.6667V42.896C15.6934 42.7863 15.3746 42.7147 15.0506 42.6827L14.6666 42.6667C13.6722 42.6667 12.7135 43.0371 11.9775 43.7057C11.2414 44.3742 10.7807 45.2929 10.6853 46.2827L10.6666 46.6667V58.6667H5.33325V46.6667C5.33325 44.1913 6.31658 41.8174 8.06692 40.067C9.81726 38.3167 12.1912 37.3333 14.6666 37.3333ZM49.3333 37.3333C51.8086 37.3333 54.1826 38.3167 55.9329 40.067C57.6833 41.8174 58.6666 44.1913 58.6666 46.6667V58.6667H53.3333V46.6667C53.3332 45.6723 52.9628 44.7136 52.2943 43.9776C51.6257 43.2415 50.707 42.7808 49.7173 42.6853L49.3333 42.6667C48.8666 42.6667 48.4186 42.7467 47.9999 42.8933V42.6667C47.9999 40.8907 47.7119 39.184 47.1759 37.5893C47.8666 37.4213 48.5893 37.3333 49.3333 37.3333ZM14.6666 21.3333C16.4347 21.3333 18.1304 22.0357 19.3806 23.286C20.6309 24.5362 21.3333 26.2319 21.3333 28C21.3333 29.7681 20.6309 31.4638 19.3806 32.7141C18.1304 33.9643 16.4347 34.6667 14.6666 34.6667C12.8985 34.6667 11.2028 33.9643 9.95254 32.7141C8.7023 31.4638 7.99992 29.7681 7.99992 28C7.99992 26.2319 8.7023 24.5362 9.95254 23.286C11.2028 22.0357 12.8985 21.3333 14.6666 21.3333ZM49.3333 21.3333C51.1014 21.3333 52.7971 22.0357 54.0473 23.286C55.2975 24.5362 55.9999 26.2319 55.9999 28C55.9999 29.7681 55.2975 31.4638 54.0473 32.7141C52.7971 33.9643 51.1014 34.6667 49.3333 34.6667C47.5651 34.6667 45.8694 33.9643 44.6192 32.7141C43.369 31.4638 42.6666 29.7681 42.6666 28C42.6666 26.2319 43.369 24.5362 44.6192 23.286C45.8694 22.0357 47.5651 21.3333 49.3333 21.3333ZM14.6666 26.6667C14.313 26.6667 13.9738 26.8072 13.7238 27.0572C13.4737 27.3072 13.3333 27.6464 13.3333 28C13.3333 28.3536 13.4737 28.6928 13.7238 28.9428C13.9738 29.1929 14.313 29.3333 14.6666 29.3333C15.0202 29.3333 15.3593 29.1929 15.6094 28.9428C15.8594 28.6928 15.9999 28.3536 15.9999 28C15.9999 27.6464 15.8594 27.3072 15.6094 27.0572C15.3593 26.8072 15.0202 26.6667 14.6666 26.6667ZM49.3333 26.6667C48.9796 26.6667 48.6405 26.8072 48.3904 27.0572C48.1404 27.3072 47.9999 27.6464 47.9999 28C47.9999 28.3536 48.1404 28.6928 48.3904 28.9428C48.6405 29.1929 48.9796 29.3333 49.3333 29.3333C49.6869 29.3333 50.026 29.1929 50.2761 28.9428C50.5261 28.6928 50.6666 28.3536 50.6666 28C50.6666 27.6464 50.5261 27.3072 50.2761 27.0572C50.026 26.8072 49.6869 26.6667 49.3333 26.6667ZM31.9999 5.33334C34.8289 5.33334 37.542 6.45715 39.5424 8.45754C41.5428 10.4579 42.6666 13.171 42.6666 16C42.6666 18.829 41.5428 21.5421 39.5424 23.5425C37.542 25.5429 34.8289 26.6667 31.9999 26.6667C29.1709 26.6667 26.4578 25.5429 24.4574 23.5425C22.4571 21.5421 21.3333 18.829 21.3333 16C21.3333 13.171 22.4571 10.4579 24.4574 8.45754C26.4578 6.45715 29.1709 5.33334 31.9999 5.33334ZM31.9999 10.6667C30.5854 10.6667 29.2289 11.2286 28.2287 12.2288C27.2285 13.229 26.6666 14.5855 26.6666 16C26.6666 17.4145 27.2285 18.7711 28.2287 19.7712C29.2289 20.7714 30.5854 21.3333 31.9999 21.3333C33.4144 21.3333 34.771 20.7714 35.7712 19.7712C36.7713 18.7711 37.3333 17.4145 37.3333 16C37.3333 14.5855 36.7713 13.229 35.7712 12.2288C34.771 11.2286 33.4144 10.6667 31.9999 10.6667Z" fill="#5A8CAE"/>
</svg>
