<svg width="36" height="36" viewBox="0 0 36 36" fill="none" xmlns="http://www.w3.org/2000/svg">
<path d="M35.6414 10.8C35.6414 10.8 35.2898 8.31792 34.207 7.22808C32.8359 5.7937 31.3031 5.78667 30.6 5.70229C25.5656 5.33667 18.007 5.33667 18.007 5.33667H17.993C17.993 5.33667 10.4344 5.33667 5.4 5.70229C4.69688 5.78667 3.16406 5.7937 1.79297 7.22808C0.710156 8.31792 0.365625 10.8 0.365625 10.8C0.365625 10.8 0 13.7179 0 16.6289V19.357C0 22.2679 0.358594 25.1859 0.358594 25.1859C0.358594 25.1859 0.710156 27.6679 1.78594 28.7578C3.15703 30.1921 4.95703 30.1429 5.75859 30.2976C8.64141 30.5718 18 30.6562 18 30.6562C18 30.6562 25.5656 30.6421 30.6 30.2835C31.3031 30.1992 32.8359 30.1921 34.207 28.7578C35.2898 27.6679 35.6414 25.1859 35.6414 25.1859C35.6414 25.1859 36 22.2749 36 19.357V16.6289C36 13.7179 35.6414 10.8 35.6414 10.8ZM14.2805 22.6687V12.5507L24.0047 17.6273L14.2805 22.6687Z" fill="#FF0302"/>
</svg>
